<svg xmlns="http://www.w3.org/2000/svg" width="900" height="500" viewBox="0 0 900 500" role="img" aria-label="Critical-risk target composition">
<style>text{font-family:Inter,Arial,sans-serif;fill:#334155}.title{font-size:24px;font-weight:700;fill:#0f172a}.sub{font-size:13px;fill:#64748b}.label{font-size:12px}.value{font-size:12px;font-weight:600}@media(prefers-color-scheme:dark){text{fill:#cbd5e1}.title{fill:#f8fafc}.sub{fill:#94a3b8}}</style>
<rect width="900" height="500" rx="16" fill="#ffffff"/><text x="48" y="44" class="title">Critical-risk target composition</text><text x="48" y="68" class="sub">Error rate within supported field occurrences</text><line x1="270" y1="90" x2="270" y2="450" stroke="#94a3b8"/><text x="260" y="117.0" text-anchor="end" class="label">document_total</text><rect x="270" y="100.0" width="56.12" height="24" rx="4" fill="#2563eb"/><text x="336.12" y="117.0" class="value">0.1020</text><text x="260" y="165.57142857142856" text-anchor="end" class="label">subtotal</text><rect x="270" y="148.57142857142856" width="58.33" height="24" rx="4" fill="#0f766e"/><text x="338.33" y="165.57142857142856" class="value">0.1061</text><text x="260" y="214.14285714285714" text-anchor="end" class="label">tax</text><rect x="270" y="197.14285714285714" width="87.50" height="24" rx="4" fill="#d97706"/><text x="367.50" y="214.14285714285714" class="value">0.1591</text><text x="260" y="262.7142857142857" text-anchor="end" class="label">discount</text><rect x="270" y="245.71428571428572" width="183.33" height="24" rx="4" fill="#dc2626"/><text x="463.33" y="262.7142857142857" class="value">0.3333</text><text x="260" y="311.2857142857143" text-anchor="end" class="label">item_total_price</text><rect x="270" y="294.2857142857143" width="125.17" height="24" rx="4" fill="#7c3aed"/><text x="405.17" y="311.2857142857143" class="value">0.2276</text><text x="260" y="359.85714285714283" text-anchor="end" class="label">item_unit_price</text><rect x="270" y="342.85714285714283" width="193.24" height="24" rx="4" fill="#475569"/><text x="473.24" y="359.85714285714283" class="value">0.3514</text><text x="260" y="408.42857142857144" text-anchor="end" class="label">quantity</text><rect x="270" y="391.42857142857144" width="73.48" height="24" rx="4" fill="#2563eb"/><text x="353.48" y="408.42857142857144" class="value">0.1336</text></svg>
