<svg xmlns="http://www.w3.org/2000/svg" width="900" height="520" viewBox="0 0 900 520" role="img" aria-labelledby="title desc">
<title id="title">Reliability diagram</title><desc id="desc">Donut sequence confidence; calibration fit on development, evaluated on locked test</desc>
<rect width="100%" height="100%" fill="#ffffff"/><style>text{font-family:Inter,Segoe UI,Arial,sans-serif;fill:#243447}.title{font-size:24px;font-weight:700}.sub{font-size:13px;fill:#52667a}.label{font-size:12px}.small{font-size:10px}.axis{stroke:#d9e2ec;stroke-width:1}</style>
<text x="48" y="40" class="title">Reliability diagram</text><text x="48" y="64" class="sub">Donut sequence confidence; calibration fit on development, evaluated on locked test</text><line x1="90" y1="430" x2="830" y2="430" class="axis"/><line x1="90" y1="90" x2="90" y2="430" class="axis"/><line x1="90" y1="430.0" x2="830" y2="430.0" class="axis"/><text x="78" y="434.0" text-anchor="end" class="small">0.0</text><line x1="90" y1="362.0" x2="830" y2="362.0" class="axis"/><text x="78" y="366.0" text-anchor="end" class="small">0.2</text><line x1="90" y1="294.0" x2="830" y2="294.0" class="axis"/><text x="78" y="298.0" text-anchor="end" class="small">0.4</text><line x1="90" y1="226.0" x2="830" y2="226.0" class="axis"/><text x="78" y="230.0" text-anchor="end" class="small">0.6</text><line x1="90" y1="158.0" x2="830" y2="158.0" class="axis"/><text x="78" y="162.0" text-anchor="end" class="small">0.8</text><line x1="90" y1="90.0" x2="830" y2="90.0" class="axis"/><text x="78" y="94.0" text-anchor="end" class="small">1.0</text><polyline points="90.0,430.0 830.0,90.0" fill="none" stroke="#2878b5" stroke-width="3"/><rect x="90" y="458" width="14" height="4" fill="#2878b5"/><text x="110" y="464" class="small">ideal</text><polyline points="650.9,430.0 819.1,309.8" fill="none" stroke="#2a9d8f" stroke-width="3"/><rect x="240" y="458" width="14" height="4" fill="#2a9d8f"/><text x="260" y="464" class="small">raw</text><polyline points="503.1,353.5 545.6,141.0" fill="none" stroke="#e9a23b" stroke-width="3"/><rect x="390" y="458" width="14" height="4" fill="#e9a23b"/><text x="410" y="464" class="small">temperature_scaling</text><polyline points="108.6,406.3 237.6,90.0 336.7,345.0 396.0,430.0 529.3,291.5 557.4,146.7 608.9,90.0" fill="none" stroke="#c44e52" stroke-width="3"/><rect x="540" y="458" width="14" height="4" fill="#c44e52"/><text x="560" y="464" class="small">isotonic</text><text x="460.0" y="495" text-anchor="middle" class="label">mean confidence</text><text x="18" y="260.0" transform="rotate(-90 18 260.0)" text-anchor="middle" class="label">observed document exactness</text></svg>
