<svg xmlns="http://www.w3.org/2000/svg" width="900" height="520" viewBox="0 0 900 520" role="img" aria-labelledby="title desc">
<title id="title">Slice performance overview</title><desc id="desc">Predeclared headline slices; absolute leaf F1</desc>
<rect width="100%" height="100%" fill="#ffffff"/><style>text{font-family:Inter,Segoe UI,Arial,sans-serif;fill:#243447}.title{font-size:24px;font-weight:700}.sub{font-size:13px;fill:#52667a}.label{font-size:12px}.small{font-size:10px}.axis{stroke:#d9e2ec;stroke-width:1}</style>
<text x="48" y="40" class="title">Slice performance overview</text><text x="48" y="64" class="sub">Predeclared headline slices; absolute leaf F1</text><text x="250" y="108.6" text-anchor="end" class="label">text_density_tokens_per_megapixel:</text><rect x="270" y="95.4" width="419.2" height="17.4" rx="3" fill="#c44e52"/><text x="697.2" y="108.6" class="label">74.9%</text><text x="250" y="138.6" text-anchor="end" class="label">document_text_length:high</text><rect x="270" y="125.4" width="423.7" height="17.4" rx="3" fill="#c44e52"/><text x="701.7" y="138.6" class="label">75.7%</text><text x="250" y="168.6" text-anchor="end" class="label">ocr_token_count:high</text><rect x="270" y="155.4" width="433.0" height="17.4" rx="3" fill="#c44e52"/><text x="711.0" y="168.6" class="label">77.3%</text><text x="250" y="198.6" text-anchor="end" class="label">ground_truth_leaf_count:high</text><rect x="270" y="185.4" width="436.9" height="17.4" rx="3" fill="#c44e52"/><text x="714.9" y="198.6" class="label">78.0%</text><text x="250" y="228.6" text-anchor="end" class="label">edge_density:high</text><rect x="270" y="215.4" width="449.1" height="17.4" rx="3" fill="#c44e52"/><text x="727.1" y="228.6" class="label">80.2%</text><text x="250" y="258.6" text-anchor="end" class="label">foreground_density:low</text><rect x="270" y="245.4" width="452.7" height="17.4" rx="3" fill="#c44e52"/><text x="730.7" y="258.6" class="label">80.8%</text><text x="250" y="288.6" text-anchor="end" class="label">text_density_tokens_per_megapixel:</text><rect x="270" y="275.4" width="515.7" height="17.4" rx="3" fill="#2a9d8f"/><text x="793.7" y="288.6" class="label">92.1%</text><text x="250" y="318.6" text-anchor="end" class="label">image_megapixels:high</text><rect x="270" y="305.4" width="505.6" height="17.4" rx="3" fill="#2a9d8f"/><text x="783.6" y="318.6" class="label">90.3%</text><text x="250" y="348.6" text-anchor="end" class="label">document_text_length:mid</text><rect x="270" y="335.4" width="500.2" height="17.4" rx="3" fill="#2a9d8f"/><text x="778.2" y="348.6" class="label">89.3%</text><text x="250" y="378.6" text-anchor="end" class="label">ocr_token_count:low</text><rect x="270" y="365.4" width="500.0" height="17.4" rx="3" fill="#2a9d8f"/><text x="778.0" y="378.6" class="label">89.3%</text><text x="250" y="408.6" text-anchor="end" class="label">edge_density:mid</text><rect x="270" y="395.4" width="499.8" height="17.4" rx="3" fill="#2a9d8f"/><text x="777.8" y="408.6" class="label">89.3%</text><text x="250" y="438.6" text-anchor="end" class="label">ground_truth_leaf_count:low</text><rect x="270" y="425.4" width="499.1" height="17.4" rx="3" fill="#2a9d8f"/><text x="777.1" y="438.6" class="label">89.1%</text></svg>
